<?xml version="1.0" ?>
<!-- Uploaded to: SVG Repo, www.svgrepo.com, Generator: SVG Repo Mixer Tools -->
<svg width="800px" height="800px" viewBox="0 0 512 512" xmlns="http://www.w3.org/2000/svg">
<defs>
<style>.cls-1{fill:#cbeee1;}.cls-2{fill:#f19ec3;}</style>
</defs>
<title/>
<g data-name="Layer 10" id="Layer_10">
<polygon class="cls-1" points="256 96 256 179 404 179 342 96 256 96"/>
<polygon class="cls-2" points="172 96 256 96 256 179 108 179 172 96"/>
<path d="M414.21,175.31,348.89,92.46a8.51,8.51,0,0,0-6.7-3.28H170.66a8.51,8.51,0,0,0-6.7,3.28L98.64,175.31a8.34,8.34,0,0,0-1.85,5.27V413.45a8.57,8.57,0,0,0,8.55,8.55H407.45a8.57,8.57,0,0,0,8.55-8.55V180.58A7.89,7.89,0,0,0,414.21,175.31ZM391,173.46H265V106.28h73.09Zm-216.2-67.18h73.09v67.18h-126ZM113.88,404.9V190.55h285V404.9Z"/>
<path d="M297,259.37l-57.27,57.27-23.79-23.79A8.56,8.56,0,1,0,203.78,305l29.85,29.85a8.58,8.58,0,0,0,6.06,2.49,8.7,8.7,0,0,0,6.06-2.49L309,271.55a8.56,8.56,0,0,0,0-12.11A8.41,8.41,0,0,0,297,259.37Z"/>
</g>
</svg>